<svg xmlns="http://www.w3.org/2000/svg" height="512pt" version="1.1" viewBox="0 -30 512 512" width="512pt">
<g id="surface1">
<path d="M 298.015625 44.835938 L 233.230469 8.0625 C 208.597656 -4.722656 177.058594 -2.734375 142.675781 17.117188 C 63.878906 62.609375 0 184.664062 0 289.726562 C 0 352.21875 22.601562 389.355469 57.496094 409.152344 L 110.546875 439.777344 L 110.546875 439.773438 C 135.28125 452.953125 167.082031 451.117188 201.78125 431.082031 C 280.582031 385.585938 344.460938 263.535156 344.460938 158.472656 C 344.460938 69.972656 298.015625 44.835938 298.015625 44.835938 Z M 298.015625 44.835938 " style=" stroke:none;fill-rule:nonzero;fill:rgb(69.803922%,23.137255%,18.431373%);fill-opacity:1;" />
<path d="M 344.460938 158.472656 C 344.460938 263.535156 280.582031 385.589844 201.785156 431.082031 C 122.984375 476.578125 59.105469 428.285156 59.105469 323.222656 C 59.105469 218.15625 122.984375 96.105469 201.785156 50.609375 C 280.582031 5.117188 344.460938 53.40625 344.460938 158.472656 Z M 344.460938 158.472656 " style=" stroke:none;fill-rule:nonzero;fill:rgb(90.980392%,29.803922%,23.921569%);fill-opacity:1;" />
<path d="M 300.824219 183.664062 C 300.824219 256.597656 256.480469 341.320312 201.785156 372.898438 C 147.085938 404.476562 102.746094 370.957031 102.746094 298.027344 C 102.746094 225.097656 147.085938 140.375 201.785156 108.792969 C 256.480469 77.214844 300.824219 110.734375 300.824219 183.664062 Z M 300.824219 183.664062 " style=" stroke:none;fill-rule:nonzero;fill:rgb(100%,100%,100%);fill-opacity:1;" />
<path d="M 255.832031 209.640625 C 255.832031 249.441406 231.632812 295.675781 201.785156 312.910156 C 171.933594 330.144531 147.734375 311.851562 147.734375 272.050781 C 147.734375 232.25 171.933594 186.015625 201.785156 168.78125 C 231.632812 151.550781 255.832031 169.84375 255.832031 209.640625 Z M 255.832031 209.640625 " style=" stroke:none;fill-rule:nonzero;fill:rgb(90.980392%,29.803922%,23.921569%);fill-opacity:1;" />
<path d="M 333.300781 318.773438 L 352.503906 390.429688 L 459.359375 452.125 L 440.023438 379.960938 Z M 333.300781 318.773438 " style=" stroke:none;fill-rule:nonzero;fill:rgb(5.098039%,40.784314%,74.509804%);fill-opacity:1;" />
<path d="M 512 360.945312 L 440.34375 380.144531 L 333.488281 318.453125 L 405.648438 299.117188 Z M 512 360.945312 " style=" stroke:none;fill-rule:nonzero;fill:rgb(5.098039%,40.784314%,74.509804%);fill-opacity:1;" />
<path d="M 447.640625 399.574219 C 445.140625 399.574219 442.609375 398.9375 440.289062 397.605469 L 204.761719 262.15625 C 197.6875 258.089844 195.25 249.054688 199.316406 241.980469 C 203.386719 234.90625 212.421875 232.472656 219.496094 236.539062 L 455.019531 371.984375 C 462.09375 376.050781 464.53125 385.085938 460.464844 392.160156 C 457.730469 396.914062 452.757812 399.574219 447.640625 399.574219 Z M 447.640625 399.574219 " style=" stroke:none;fill-rule:nonzero;fill:rgb(25.882353%,25.882353%,25.882353%);fill-opacity:1;" />
</g>
</svg>